<svg xmlns="http://www.w3.org/2000/svg" width="3681.934" height="1523.451" viewBox="0 0 3681.934 1523.451">
  <g id="logo" transform="translate(-1714.104 -665.075)">
    <path id="Path_106" data-name="Path 106" d="M855.351,152.308l-3.833-26.276V102.688h17.046v23.345l-3.953,26.276ZM764.2,212.691l14.957-2.54c.872,7.155,3.262,12.491,7.17,15.934,3.923,3.487,9.094,5.231,15.558,5.231,6.479,0,11.469-1.548,15-4.585a14.565,14.565,0,0,0,5.291-11.559,11.159,11.159,0,0,0-4.449-9.425q-3.134-2.277-15.167-5.742-17.474-5.051-23.39-8.6a24.768,24.768,0,0,1-9.2-9.485,27.456,27.456,0,0,1-3.262-13.484q0-12.988,8.839-21.15c5.892-5.411,14.07-8.132,24.472-8.132a41.586,41.586,0,0,1,17.317,3.367,27.446,27.446,0,0,1,11.439,9c2.646,3.8,4.479,9.184,5.472,16.25l-14.536,2.54c-1.353-11.379-7.8-17.061-19.271-17.061-6.539,0-11.394,1.248-14.611,3.7a11.364,11.364,0,0,0-4.78,9.425,10.228,10.228,0,0,0,4.615,8.884q2.751,1.917,16.415,6.148c12.431,3.547,20.428,6.464,24.066,8.688a22.844,22.844,0,0,1,8.418,9.019,28.857,28.857,0,0,1,3.006,13.619c0,9.741-3.247,17.632-9.8,23.63q-9.763,9.064-26.742,9.064Q769.279,245.454,764.2,212.691Zm-32.033,30.395V141.335h14.957V243.086Zm0-120.571V102.7h14.957v19.812ZM637.4,243.086V141.335h13.514v14.581a33.76,33.76,0,0,1,11.875-12.582,30.921,30.921,0,0,1,16.129-4.164,32.288,32.288,0,0,1,13.123,2.646,26.3,26.3,0,0,1,9.7,6.855,27.6,27.6,0,0,1,5.517,11.078q1.826,6.764,1.834,20.864v62.473H694.134V181.275c0-7.5-.661-12.943-2-16.385a16.8,16.8,0,0,0-6.344-8.012,17.872,17.872,0,0,0-9.981-2.8q-10.688,0-17.076,7.546c-4.269,5.066-6.373,13.694-6.373,25.945v55.513Zm-81.067-51.529c0,10.522,1.007,18.444,3.052,23.66a25.76,25.76,0,0,0,8.628,12,20.264,20.264,0,0,0,12.356,4.119c6.178,0,11.65-3.262,16.385-9.831q7.17-9.808,7.17-29.387,0-20.022-6.885-29.417-6.922-9.38-16.941-9.38c-6.163,0-11.68,3.262-16.52,9.831C558.772,169.655,556.336,179.14,556.336,191.557Zm.21,51.529h-13.92V102.7h14.957v50.086a32.971,32.971,0,0,1,10.808-10.222,27.093,27.093,0,0,1,13.469-3.412,32.5,32.5,0,0,1,18.8,5.847c5.652,3.893,10.192,9.8,13.544,17.723q5.1,11.86,5.1,28.816,0,25.84-11.469,39.865-11.477,14.047-26.817,14.04a26.113,26.113,0,0,1-13.889-3.758,32.369,32.369,0,0,1-10.6-11.214v12.612ZM504.276,192.1q-8.219,3.856-24.485,6.479c-6.3,1.007-10.692,2.18-13.193,3.487a14.384,14.384,0,0,0-5.856,5.562,16.3,16.3,0,0,0-2.083,8.3,15.017,15.017,0,0,0,4.78,11.635c3.187,2.916,7.576,4.359,13.193,4.359a27.853,27.853,0,0,0,14.591-3.923,24.731,24.731,0,0,0,9.8-10.477c2.18-4.344,3.256-10.733,3.256-19.091V192.1Zm1.146,38.482a55.84,55.84,0,0,1-15.611,11.109,39.833,39.833,0,0,1-16.869,3.758q-13.838,0-22.041-7.877-8.239-7.847-8.231-21.18a30.844,30.844,0,0,1,3.871-15.618,27.757,27.757,0,0,1,10.566-10.658c4.458-2.54,11.251-4.449,20.322-5.637,12.188-1.639,21.16-3.608,26.848-5.877l.111-4.42q0-10.485-3.941-14.731c-3.717-4.074-9.419-6.148-17.12-6.148q-10.44,0-15.626,4.089c-3.424,2.706-5.954,7.832-7.575,15.318l-14.969-2.555c2.111-10.823,6.345-18.655,12.746-23.6,6.416-4.946,15.6-7.381,27.505-7.381,9.281,0,16.549,1.623,21.859,4.93,5.266,3.262,8.618,7.351,10,12.191,1.383,4.87,2.089,11.935,2.089,21.24V200.5c0,16.084.3,26.216.977,30.395a41.926,41.926,0,0,0,3.8,12.176H508.55A39.454,39.454,0,0,1,505.422,230.579ZM330.888,197.795l15.375-1.368q1.195,11.567,5.506,18.053a30.678,30.678,0,0,0,12.3,10.387,40.46,40.46,0,0,0,18.016,3.908q14.4,0,22.333-6.629a21.472,21.472,0,0,0,7.938-17.257,20.123,20.123,0,0,0-2.907-10.853,20.86,20.86,0,0,0-8.735-7.576c-3.871-1.984-12.3-4.78-25.213-8.328q-17.231-4.8-24.556-9.681a34.213,34.213,0,0,1-15.484-29.4q0-17.046,11.683-27.869,11.637-10.846,31.42-10.823,13.605,0,23.786,5.066a37.6,37.6,0,0,1,15.835,14.566c3.746,6.3,5.745,13.769,6.038,22.337l-15.373,1.368q-1.195-13.664-8.694-20.263c-4.947-4.4-11.949-6.584-20.95-6.584q-13.709,0-20.921,5.772a18.281,18.281,0,0,0-7.2,14.942q0,8.523,5.3,13.2c3.495,3.142,11.433,6.268,23.76,9.44,12.048,3.082,20.5,5.787,25.381,8.027,7.448,3.563,13.054,8.237,16.8,14.085,3.773,5.862,5.646,12.822,5.646,20.925a41.773,41.773,0,0,1-6,21.962A39.25,39.25,0,0,1,405.7,240.305c-6.862,3.427-15.109,5.156-24.794,5.156q-22.6,0-36.016-12.837Q331.391,219.749,330.888,197.795Zm-86.651,45.291v-19.6h17.037v19.6Zm-52.159,0V141.335h13.5v15.588c3.466-7.155,6.611-11.905,9.491-14.25a14.991,14.991,0,0,1,9.7-3.5c4.989,0,10.12,1.834,15.318,5.487L235.1,160.741a19.6,19.6,0,0,0-10.873-3.728,13.475,13.475,0,0,0-8.722,3.172,16.536,16.536,0,0,0-5.619,8.794,74.837,74.837,0,0,0-2.837,20.94v53.153H192.077ZM87.157,226.611H113.1q15.682,0,23.786-4.825c5.41-3.232,9.574-8.448,12.439-15.6q5.765-14.318,5.787-34.243,0-21.421-6.136-33.626-6.122-12.244-15.752-16.355c-4.29-1.864-11.152-2.8-20.544-2.8H87.157V226.611ZM70.945,243.086V102.7h42.082q15.6,0,23.732,2.57a40.682,40.682,0,0,1,18.462,12.251q7.8,8.929,12.159,22.458,4.361,13.6,4.361,32.153,0,23.81-7.408,40.466-7.38,16.6-19.021,23.555-11.572,6.922-30.342,6.93Z" transform="translate(2061.924 1408.215)"/>
    <path id="Path_107" data-name="Path 107" d="M1575.442,478.768a4.673,4.673,0,0,1-3.728-2.044,6.543,6.543,0,0,1-1.594-4.073q0-4.058,24.231-63.209,24.239-59.12,41.548-104.487,17.317-45.344,17.3-56.565,0-7.148-4.8-10.192a20.461,20.461,0,0,0-11.2-3.052,87.75,87.75,0,0,0-10.643,1.022,92.7,92.7,0,0,1-10.132,1.022c-4.975,0-7.441-2.375-7.441-7.14q0-3.562,5.847-10.447,5.863-6.877,21.841-9.681t45.532-15.814q29.56-12.988,35.415-12.988a19.015,19.015,0,0,1,14.912,6.629c3.893,4.4,5.862,9.936,5.862,16.64,0,5.006-1.518,11.048-4.54,18.008s-5.772,13.439-8.252,19.451v.932c26.456-18.339,49.079-33.22,68.094-44.6q28.365-17.069,47.14-17.076,26.742,0,42.615,15.032,15.829,15.039,15.783,40.015,0,20.383-15.182,55.047-15.175,34.633-30.62,69.823Q1838,396.2,1838,415.558q0,5.119,5.863,12.236,5.84,7.147,11.71,7.14,4.8,0,12.236-3.307,7.463-3.337,15.453-6.885c3.893,0,5.847,1.368,5.847,4.074,0,5.787-1.067,10.192-3.2,13.258a24.5,24.5,0,0,1-9.049,7.651q-20.248,13.754-37.82,25.494-17.587,11.7-29.3,11.71-21.308,0-34.889-17.843t-13.574-42.315q0-28.523,9.049-50.447t30.62-66.261q21.578-44.352,21.571-57.587,0-21.42-13.859-21.405-23.946,0-60.969,34.919t-64.186,107.027q-27.17,72.108-33.281,88.944-6.133,16.821-11.454,16.821h-63.33Zm-83.607-250.762q-15.987-8.162-37.82-8.162-53.8,0-96.941,55.558-43.157,55.581-43.142,106.531,0,28.027,7.726,40.526,7.711,12.492,23.164,12.477,17.046,0,34.889-22.924t52.462-83.593Q1466.784,267.765,1491.834,228.005Zm-61.8,165.652q-24.352,30.575-49.876,61.917c-17.046,20.909-34.708,31.342-53.183,31.342q-41.4,0-65.6-25.99-24.126-26-24.156-66.772,0-74.431,75.625-143.735,75.648-69.312,165.652-69.327a284.018,284.018,0,0,1,73.761,9.936q37.024,9.944,37.009,21.661,0,4.081-14.912,21.917-14.9,17.858-19.181,17.858a11.068,11.068,0,0,1-6.93-2.044q-25.547,42.3-39.414,75.686a178.654,178.654,0,0,0-13.844,69.072q0,18.85,6.659,27.764a21.125,21.125,0,0,0,17.858,8.914q5.321,0,16.775-5.862t13.063-5.862c4.615,0,6.915,2.029,6.915,6.118a26.308,26.308,0,0,1-5.863,16.31c-3.893,5.1-7.816,8.749-11.725,10.958q-5.84,3.314-27.418,18.354T1475.314,486.9q-18.647,0-31.973-20.128-13.3-20.135-13.318-48.162l1.609-23.961Zm-380.819,22.428q59.639-72.9,90.282-116.708,30.62-43.833,30.62-63.72,0-12.243-7.456-18.594-7.463-6.381-24.5-6.374h-11.71c-3.923,0-5.862-1.533-5.862-4.51,0-2.044,1.428-4.074,4.269-5.953a39.311,39.311,0,0,0,7.726-6.975c2.3-2.631,4.87-3.983,7.726-3.983h87.877c12.431,0,18.655,6.118,18.655,18.264q0,9.56-10.116,25.75c-6.765,10.883-21.135,30.485-43.157,59.03q-33.01,42.706-79.353,101.51-46.336,58.625-52.206,62.022c-3.908,2.119-10.823,4.675-20.759,7.561a108.387,108.387,0,0,0-29.568,13.92c-9.771,6.374-16.6,9.605-20.5,9.605s-6.659-1.518-8.252-4.675c-1.608-3.051-2.405-7.05-2.405-11.8C982.3,455,984,439.534,985.589,424.247a449.759,449.759,0,0,0,2.39-46.629q0-82.57-9.59-115.535-9.583-33.01-22.909-33.055h-21.3c-4.615,0-6.915-2.029-6.915-6.028a33.927,33.927,0,0,0,3.728-7.14,10.409,10.409,0,0,1,4-5.021c1.954-1.353,8.688-3.743,20.233-6.96a205.383,205.383,0,0,0,35.415-13.754c12.071-6.043,22.2-9,30.364-9q14.363,0,24.758,28.546,10.372,28.546,10.387,122.33,0,26-1.323,41.789-1.353,15.829-5.592,41.293v1.007ZM814.334,219.843q-26.647,0-53.529,32.694-26.9,32.649-38.617,63.134,56.458-12.244,86.82-28.711c20.238-11.048,30.371-25.314,30.371-43.082Q839.358,219.82,814.334,219.843ZM858.54,388.05q6.92,0,6.919,7.636,0,3.562-5.59,13.514-5.6,9.921-10.385,18.594t-57.26,33.9q-52.473,25.231-75.905,25.224-41.551,0-66.05-25.479t-24.5-63.209q0-76.956,73.766-147.042t160.055-70.079q19.7,0,38.085,14.01t18.378,34.919q0,33.641-34.885,57.347T797.017,328.4q-49.267,17.339-89.21,30.575-5.326,16.325-5.324,30.079,0,22.413,13.318,34.138t36.757,11.725q24.487,0,52.732-14.265Q831.895,404.375,858.54,388.05ZM528.311,219.843q-26.625,0-53.529,32.694-26.9,32.649-38.615,63.134,56.455-12.244,86.82-28.711c20.237-11.048,30.355-25.314,30.355-43.082Q553.342,219.82,528.311,219.843ZM572.519,388.05q6.918,0,6.918,7.636,0,3.562-5.59,13.514-5.6,9.921-10.384,18.594t-57.261,33.9q-52.451,25.231-75.9,25.224-41.551,0-66.038-25.479-24.507-25.479-24.5-63.209,0-76.956,73.766-147.042T573.58,181.106q19.707,0,38.085,14.01t18.38,34.919q0,33.641-34.885,57.347T511.009,328.4q-49.267,17.339-89.21,30.575-5.326,16.325-5.326,30.079,0,22.413,13.32,34.138t36.744,11.725q24.507,0,52.732-14.265Q545.872,404.375,572.519,388.05ZM43.087,584.277q27.17-17.317,58.588-46.629t96.143-193.416q64.715-164.126,64.709-183.495,0-11.206-4.263-15.543a18.73,18.73,0,0,0-10.916-5.336q-6.665-1.015-11.977-2.3t-5.324-6.374c0-2.375,1.509-4.765,4.528-7.14a36.016,36.016,0,0,0,6.919-6.87q2.39-3.314,10.384-3.322L318.99,115.9l70.846-2.044q7.986,0,7.994,3.578c0,.676-1.159,3.232-3.451,7.636s-4.179,7.14-5.59,8.162q-2.14,1.533-15.444,5.607t-27.436,30.845q-14.108,26.764-35.149,82.57T258.823,395.476q-30.882,87.418-38.617,101.18-7.714,13.754-48.469,38.481t-76.966,47.14q-15.975,8.681-39.944,8.673C46.986,590.906,43.087,588.711,43.087,584.277Z" transform="translate(1671.018 1597.575)" fill="#007b38"/>
    <path id="Path_108" data-name="Path 108" d="M208.223,44.244C552.063,81.552,799.1,273.523,955.79,594.272c181.481-178.1,138.1-357.806,180.113-528.022,146.516,382.107-6.6,814.178-330.281,1068.015C840.075,714.048,619.06,227.7,208.223,44.244Z" transform="translate(3988.193 620.831)" fill="#007b38" fill-rule="evenodd"/>
    <path id="Path_109" data-name="Path 109" d="M1605.753,280.372q-15.987-8.162-37.821-8.162-53.8,0-96.941,55.558-43.134,55.581-43.141,106.531,0,28.027,7.711,40.526T1458.74,487.3q17.024,0,34.874-22.924t52.476-83.593Q1580.724,320.132,1605.753,280.372Zm-61.8,165.652c-16.234,20.383-32.935,41.037-49.891,61.917-17.046,20.909-34.709,31.342-53.168,31.342q-41.4,0-65.6-25.99-24.1-26-24.156-66.772,0-74.431,75.641-143.735t165.652-69.327a283.934,283.934,0,0,1,73.762,9.936q37.024,9.944,37.009,21.661,0,4.081-14.912,21.932t-19.181,17.843a11.024,11.024,0,0,1-6.915-2.044q-25.547,42.3-39.413,75.7a178.521,178.521,0,0,0-13.845,69.057q0,18.85,6.659,27.764a21.156,21.156,0,0,0,17.858,8.929q5.321,0,16.76-5.878c7.637-3.893,11.98-5.862,13.063-5.862,4.615,0,6.93,2.029,6.93,6.118a26.308,26.308,0,0,1-5.863,16.31q-5.862,7.644-11.71,10.958T1625.2,524.235q-21.579,15.04-35.941,15.032-18.647,0-31.973-20.128-13.3-20.135-13.319-48.162l1.608-23.961ZM1008.67,531.135a4.652,4.652,0,0,1-3.728-2.044,6.543,6.543,0,0,1-1.594-4.073q0-5.727,42.345-114.092,42.345-108.433,64.186-166.073,21.849-57.587,21.826-69.387c0-4.765-1.774-8.253-5.322-10.282s-8-3.051-13.318-3.051h-19.181q-7.463,0-7.456-6.614c0-2.21,1.969-5.442,5.862-9.7,3.908-4.254,11.184-7.215,21.826-9,10.658-1.7,25.84-6.629,45.547-14.626q29.561-12.086,35.415-12.056c7.817,0,13.754,2.3,17.858,6.96a23.05,23.05,0,0,1,6.118,15.648q0,24.194-18.64,72.2-18.647,48.049-34.618,89.2v1.022c31.071-22.337,53.784-38.121,68.095-47.561,14.28-9.44,27.689-14.1,40.2-14.1q26.787,0,42.616,15.8,15.851,15.806,15.813,44.344,0,17.835-15.453,52-15.445,34.138-31.161,68.8-15.693,34.679-15.708,51.469,0,9.177,4.269,15.288c2.826,4.074,6.569,6.118,11.169,6.118q7.463,0,19.181-4.585c7.816-3.052,12.071-4.6,12.792-4.6,3.893,0,5.847,1.368,5.847,4.073q0,4.6-4.524,10.974t-15.438,12.732q-10.935,6.359-29.027,19.887-18.129,13.484-30.379,13.5-20.225,0-35.415-18.594a65.5,65.5,0,0,1-15.182-42.57q0-24.96,8-44.089t31.161-68.305q23.157-49.177,23.164-64.472a20.212,20.212,0,0,0-4-12.491c-2.646-3.578-5.938-5.351-9.846-5.351q-26.652,0-64.983,36.437t-63.9,112.394q-25.57,75.919-30.365,87.411-4.8,11.454-10.116,11.454H1008.67Zm-323.291,0q-7.463,0-7.471-6.118,0-5.727,37.565-103.3,37.542-97.587,62.848-165.306c16.866-45.111,25.3-70.68,25.3-76.888,0-6.449-1.518-11.048-4.54-13.589-3.006-2.555-7.365-3.833-13.048-3.833H766.851q-7.463,0-7.456-6.614c0-2.21,1.954-5.427,5.862-9.7,3.893-4.254,11.184-7.215,21.842-9,10.643-1.7,25.825-6.629,45.532-14.626,19.707-8.057,31.522-12.041,35.415-12.041A25.748,25.748,0,0,1,886.43,117.5a23.317,23.317,0,0,1,7.727,17.5q0,22.435-18.279,67.629-18.241,45.231-33.927,82.826v1.022q22.368-15.671,49.26-34.318,26.9-18.737,48.207-18.7,28.771,0,46.885,16.31t18.114,44.855q0,35.671-30.62,63.705-30.642,28.049-62.322,31.612-31.7,3.585-31.7,14.792,0,17.813,24.231,50.192T946.347,487.3a55.379,55.379,0,0,0,20.774-3.833q9.583-3.81,19.707-7.892,6.922,0,6.915,5.1,0,5.614-9.59,16.31a96.69,96.69,0,0,1-23.435,18.85q-13.845,8.162-27.433,15.813t-25.825,7.636q-32.491,0-64.187-50.132-31.679-50.191-31.687-94.19c0-6.118,1.684-10.958,5.051-14.431,3.382-3.578,7.02-5.351,10.913-5.351h22.908q22.367,0,51.935-17.257,29.56-17.317,29.568-48.749,0-23.72-23.435-23.705-21.308,0-53.529,23.946-32.243,23.969-47.155,64.742L764.7,490.879q-6.381,17.317-12.777,34.664-3.2,5.614-11.725,5.607H685.378ZM592.707,272.21q-26.629,0-53.529,32.709-26.9,32.627-38.617,63.119,56.46-12.244,86.809-28.711c20.248-11.048,30.365-25.314,30.365-43.082Q617.735,272.188,592.707,272.21ZM636.9,440.417q6.922,0,6.93,7.636,0,3.562-5.592,13.514-5.592,9.921-10.387,18.609-4.8,8.659-57.257,33.882t-75.911,25.224q-41.555,0-66.05-25.479t-24.5-63.194q0-76.978,73.776-147.057,73.754-70.056,160.045-70.079,19.707,0,38.091,14.01Q694.42,261.53,694.412,282.4q0,33.641-34.874,57.347T575.39,380.771q-49.267,17.339-89.215,30.575-5.321,16.325-5.321,30.079,0,22.413,13.318,34.138,13.3,11.725,36.738,11.74,24.509,0,52.732-14.28Q610.271,456.742,636.9,440.417ZM174.594,531.135c-4.976,0-7.456-2.871-7.456-8.658q0-3.45,28.23-75.1Q223.6,375.9,236.375,342.815c8.523-22.007,12.792-35.686,12.792-41.127a10.8,10.8,0,0,0-5.592-9.846,25.1,25.1,0,0,0-13.048-3.322H211.347c-4.976,0-7.456-2.3-7.456-6.975,0-2.375,1.969-5.757,5.863-10.267s12-7.817,24.231-9.771q18.376-3.067,43.142-15.543,24.78-12.491,35.415-12.491c3.923,0,7.11,2.21,9.59,6.7,2.5,4.434,3.743,10.282,3.743,17.5,0,6.9-3.112,18.7-9.335,35.505-6.193,16.836-12.521,31.868-18.91,45.276l1.067,1.022q34.611-49.966,58.85-77.985,24.24-28.05,53.529-28.035,19.166,0,32.5,7.4,13.3,7.4,13.318,14.01c0,3.412-2.12,7.14-6.389,11.214a126.573,126.573,0,0,0-12,13.258q-5.592,7.148-14.641,18.354-5.321,5.1-11.184,5.1-4.262,0-13.048-7.14t-15.182-7.14q-29.83,0-68.966,59.887Q276.323,408.279,261.163,462.3q-15.175,54.025-19.451,61.42-4.239,7.4-10.117,7.4h-57Z" transform="translate(3411.691 1545.208)" fill="#ec6602"/>
    <path id="Path_110" data-name="Path 110" d="M374.493,45.925c70.951,0,128.463,55.044,128.463,122.94S445.444,291.807,374.493,291.807,246.015,236.761,246.015,168.865,303.542,45.925,374.493,45.925Z" transform="translate(4518.487 644.42)" fill="#007b38" fill-rule="evenodd"/>
    <path id="Path_111" data-name="Path 111" d="M894.027,55.794l.09.056a460.493,460.493,0,0,1,56.4,34.7,454.755,454.755,0,0,1,50.477,42.08c81.007,78.158,131.771,185.434,131.771,303.825v.056h-.091c-.015,119.483-50.687,227.724-132.521,306.068l.045.06c-81.789,78.241-194.844,126.689-319.759,126.719v.075h-.21v-.075c-124.855-.015-237.955-48.493-319.834-126.824l-.045.06c-81.774-78.274-132.4-186.474-132.431-306h-.09v-.266h.09A415.4,415.4,0,0,1,257.29,282.581q4.261-10.753,9.966-22.96a432.136,432.136,0,0,1,70.966-106.448l36.542,30.252a385.225,385.225,0,0,0-63.39,95.041q-4.329,9.281-8.854,20.606A371.107,371.107,0,0,0,276.2,436.32h.09v.266h-.09c.015,106.6,45.291,203.225,118.406,273.194v.1c73.1,69.969,174.1,113.246,285.606,113.261v-.075h.21v.075c111.4-.015,212.356-43.337,285.486-113.3H966c73.115-69.954,118.347-166.6,118.347-273.306h-.09v-.057c0-105.707-45.307-201.476-117.564-271.219A410.189,410.189,0,0,0,921.52,127.54a415.957,415.957,0,0,0-50.538-31.094l-.105-.056Z" transform="translate(4263.274 782.901)" fill="#007b38"/>
    <path id="Path_112" data-name="Path 112" d="M334.462,229.6c33.461,0,60.594-25.96,60.594-57.978s-27.132-57.963-60.594-57.963-60.579,25.945-60.579,57.963S301,229.6,334.462,229.6Z" transform="translate(4909.528 1594.811)" fill="none" stroke="#000" stroke-miterlimit="2.613" stroke-width="1"/>
    <path id="Path_113" data-name="Path 113" d="M328.09,159.512l9.215,2.24q-2.886,10.846-10.387,16.52-7.486,5.7-18.339,5.7c-7.485,0-13.573-1.443-18.249-4.374a27.549,27.549,0,0,1-10.718-12.672,43.78,43.78,0,0,1-3.667-17.813,37.618,37.618,0,0,1,4.149-18.129,27.738,27.738,0,0,1,11.8-11.755,35.5,35.5,0,0,1,16.836-4c6.945,0,12.807,1.684,17.527,5.081a26.243,26.243,0,0,1,9.906,14.3l-9.034,2.044c-1.593-4.84-3.954-8.373-7-10.568-3.067-2.225-6.9-3.307-11.56-3.307-5.321,0-9.8,1.218-13.363,3.668a19.433,19.433,0,0,0-7.531,9.861,37.9,37.9,0,0,0-2.179,12.792,39.138,39.138,0,0,0,2.57,14.807,18.443,18.443,0,0,0,8.012,9.455,23.151,23.151,0,0,0,11.771,3.127,20.368,20.368,0,0,0,13.047-4.254C324.407,169.328,326.812,165.119,328.09,159.512Z" transform="translate(4938.448 1616.869)"/>
  </g>
</svg>
